<svg xmlns="http://www.w3.org/2000/svg" xmlns:xlink="http://www.w3.org/1999/xlink" width="120" zoomAndPan="magnify" viewBox="0 0 90 89.999999" height="120" preserveAspectRatio="xMidYMid meet" version="1.0"><defs><clipPath id="abd1688686"><path d="M 2.550781 1.800781 L 84.300781 1.800781 L 84.300781 83.550781 L 2.550781 83.550781 Z M 2.550781 1.800781 " clip-rule="nonzero"/></clipPath></defs><g clip-path="url(#abd1688686)"><path fill="#a6a6a6" d="M 43.425781 1.800781 C 20.851562 1.800781 2.550781 20.101562 2.550781 42.675781 C 2.550781 65.25 20.851562 83.550781 43.425781 83.550781 C 66 83.550781 84.300781 65.25 84.300781 42.675781 C 84.300781 20.101562 66 1.800781 43.425781 1.800781 Z M 43.425781 16.171875 C 49.335938 16.171875 54.128906 21.832031 54.128906 28.820312 C 54.128906 35.804688 49.335938 41.46875 43.425781 41.46875 C 37.515625 41.46875 32.722656 35.804688 32.722656 28.820312 C 32.722656 21.832031 37.515625 16.171875 43.425781 16.171875 Z M 61.539062 65.988281 L 25.308594 65.988281 C 23.492188 65.988281 22.019531 64.515625 22.019531 62.695312 C 22.019531 54.195312 31.601562 47.304688 43.425781 47.304688 C 55.246094 47.304688 64.832031 54.195312 64.832031 62.695312 C 64.832031 64.515625 63.359375 65.988281 61.539062 65.988281 Z M 61.539062 65.988281 " fill-opacity="1" fill-rule="nonzero"/></g></svg>